<svg width="24" height="24" viewBox="0 0 24 24" fill="none" xmlns="http://www.w3.org/2000/svg">
<path d="M20.4362 11.1094H6.72288L14.9307 3.98438C15.0619 3.86953 14.9823 3.65625 14.8088 3.65625H12.7346C12.6432 3.65625 12.5565 3.68906 12.4885 3.74766L3.63148 11.4328C3.55036 11.5031 3.4853 11.5901 3.44071 11.6877C3.39612 11.7854 3.37305 11.8915 3.37305 11.9988C3.37305 12.1062 3.39612 12.2123 3.44071 12.3099C3.4853 12.4076 3.55036 12.4945 3.63148 12.5648L12.5401 20.2969C12.5752 20.3273 12.6174 20.3438 12.6619 20.3438H14.8065C14.9799 20.3438 15.0596 20.1281 14.9284 20.0156L6.72288 12.8906H20.4362C20.5393 12.8906 20.6237 12.8062 20.6237 12.7031V11.2969C20.6237 11.1937 20.5393 11.1094 20.4362 11.1094Z" fill="black" fill-opacity="0.45"/>
</svg>
