<svg width="12" height="12" viewBox="0 0 12 12" fill="none" xmlns="http://www.w3.org/2000/svg">
<path d="M7.27824 6.00014L11.9657 0.41264C12.0443 0.319782 11.9782 0.178711 11.8568 0.178711H10.4318C10.3479 0.178711 10.2675 0.216211 10.2122 0.280497L6.3461 4.88942L2.48003 0.280497C2.42645 0.216211 2.3461 0.178711 2.26038 0.178711H0.835383C0.713955 0.178711 0.647883 0.319782 0.726454 0.41264L5.41395 6.00014L0.726454 11.5876C0.708854 11.6083 0.697562 11.6336 0.69392 11.6606C0.690278 11.6875 0.694438 11.7149 0.705907 11.7395C0.717376 11.7642 0.735672 11.785 0.758622 11.7995C0.781573 11.8141 0.808214 11.8217 0.835383 11.8216H2.26038C2.34431 11.8216 2.42467 11.7841 2.48003 11.7198L6.3461 7.11085L10.2122 11.7198C10.2657 11.7841 10.3461 11.8216 10.4318 11.8216H11.8568C11.9782 11.8216 12.0443 11.6805 11.9657 11.5876L7.27824 6.00014Z" fill="black" fill-opacity="1"/>
</svg>
