<svg width="24" height="26" viewBox="0 0 24 26" fill="none" xmlns="http://www.w3.org/2000/svg">
<g filter="url(#filter0_d_3300_5558)">
<rect width="24" height="24" rx="4" fill="white" shape-rendering="crispEdges"/>
<path d="M8.52324 15.2812C8.55059 15.2812 8.57793 15.2785 8.60527 15.2744L10.9049 14.8711C10.9322 14.8656 10.9582 14.8533 10.9773 14.8328L16.7729 9.0373C16.7855 9.02466 16.7956 9.00963 16.8024 8.99309C16.8093 8.97655 16.8128 8.95882 16.8128 8.94092C16.8128 8.92301 16.8093 8.90528 16.8024 8.88874C16.7956 8.8722 16.7855 8.85718 16.7729 8.84453L14.5006 6.5709C14.4746 6.54492 14.4404 6.53125 14.4035 6.53125C14.3666 6.53125 14.3324 6.54492 14.3064 6.5709L8.51094 12.3664C8.49043 12.3869 8.47813 12.4115 8.47266 12.4389L8.06934 14.7385C8.05604 14.8117 8.06079 14.8871 8.08318 14.9581C8.10557 15.0291 8.14493 15.0935 8.19785 15.1459C8.28809 15.2334 8.40156 15.2812 8.52324 15.2812V15.2812ZM9.44473 12.8969L14.4035 7.93945L15.4057 8.9416L10.4469 13.899L9.23145 14.1137L9.44473 12.8969V12.8969ZM17.0312 16.4297H6.96875C6.72676 16.4297 6.53125 16.6252 6.53125 16.8672V17.3594C6.53125 17.4195 6.58047 17.4688 6.64062 17.4688H17.3594C17.4195 17.4688 17.4688 17.4195 17.4688 17.3594V16.8672C17.4688 16.6252 17.2732 16.4297 17.0312 16.4297Z" fill="black" fill-opacity="0.45"/>
<rect x="0.5" y="0.5" width="23" height="23" rx="3.5" stroke="black" stroke-opacity="0.15" shape-rendering="crispEdges"/>
</g>
<defs>
<filter id="filter0_d_3300_5558" x="0" y="0" width="24" height="26" filterUnits="userSpaceOnUse" color-interpolation-filters="sRGB">
<feFlood flood-opacity="0" result="BackgroundImageFix"/>
<feColorMatrix in="SourceAlpha" type="matrix" values="0 0 0 0 0 0 0 0 0 0 0 0 0 0 0 0 0 0 127 0" result="hardAlpha"/>
<feOffset dy="2"/>
<feComposite in2="hardAlpha" operator="out"/>
<feColorMatrix type="matrix" values="0 0 0 0 0 0 0 0 0 0 0 0 0 0 0 0 0 0 0.02 0"/>
<feBlend mode="normal" in2="BackgroundImageFix" result="effect1_dropShadow_3300_5558"/>
<feBlend mode="normal" in="SourceGraphic" in2="effect1_dropShadow_3300_5558" result="shape"/>
</filter>
</defs>
</svg>
