<svg width="24" height="26" viewBox="0 0 24 26" fill="none" xmlns="http://www.w3.org/2000/svg">
<g filter="url(#filter0_d_3326_4465)">
<rect width="24" height="24" rx="4" fill="white" shape-rendering="crispEdges"/>
<path d="M18.7215 11.5979C17.2402 8.47754 15.0012 6.90723 11.9996 6.90723C8.99648 6.90723 6.75898 8.47754 5.27773 11.5994C5.21831 11.7252 5.1875 11.8626 5.1875 12.0018C5.1875 12.1409 5.21831 12.2783 5.27773 12.4041C6.75898 15.5244 8.99804 17.0947 11.9996 17.0947C15.0027 17.0947 17.2402 15.5244 18.7215 12.4025C18.8418 12.1494 18.8418 11.8557 18.7215 11.5979V11.5979ZM11.9996 15.9697C9.47929 15.9697 7.63398 14.6916 6.33241 12.001C7.63398 9.31035 9.47929 8.03223 11.9996 8.03223C14.5199 8.03223 16.3652 9.31035 17.6668 12.001C16.3668 14.6916 14.5215 15.9697 11.9996 15.9697ZM11.9371 9.25098C10.4184 9.25098 9.1871 10.4822 9.1871 12.001C9.1871 13.5197 10.4184 14.751 11.9371 14.751C13.4559 14.751 14.6871 13.5197 14.6871 12.001C14.6871 10.4822 13.4559 9.25098 11.9371 9.25098ZM11.9371 13.751C10.9699 13.751 10.1871 12.9682 10.1871 12.001C10.1871 11.0338 10.9699 10.251 11.9371 10.251C12.9043 10.251 13.6871 11.0338 13.6871 12.001C13.6871 12.9682 12.9043 13.751 11.9371 13.751Z" fill="black" fill-opacity="0.85"/>
<rect x="0.5" y="0.5" width="23" height="23" rx="3.5" stroke="black" stroke-opacity="0.15" shape-rendering="crispEdges"/>
</g>
<defs>
<filter id="filter0_d_3326_4465" x="0" y="0" width="24" height="26" filterUnits="userSpaceOnUse" color-interpolation-filters="sRGB">
<feFlood flood-opacity="0" result="BackgroundImageFix"/>
<feColorMatrix in="SourceAlpha" type="matrix" values="0 0 0 0 0 0 0 0 0 0 0 0 0 0 0 0 0 0 127 0" result="hardAlpha"/>
<feOffset dy="2"/>
<feComposite in2="hardAlpha" operator="out"/>
<feColorMatrix type="matrix" values="0 0 0 0 0 0 0 0 0 0 0 0 0 0 0 0 0 0 0.02 0"/>
<feBlend mode="normal" in2="BackgroundImageFix" result="effect1_dropShadow_3326_4465"/>
<feBlend mode="normal" in="SourceGraphic" in2="effect1_dropShadow_3326_4465" result="shape"/>
</filter>
</defs>
</svg>
