<svg fill="blue" xmlns="http://www.w3.org/2000/svg" xmlns:xlink="http://www.w3.org/1999/xlink" version="1.1" x="0px" y="0px" viewBox="0 0 100 125" style="enable-background:new 0 0 100 100;" xml:space="preserve"><style type="text/css">
	.st0{fill-rule:evenodd;clip-rule:evenodd;}
</style><path class="st0" d="M10.308,21.763h40.683l-3.424-5.355c-0.392-0.612-1.211-0.808-1.951-0.808H12.954  c-0.727,0-1.388,0.298-1.868,0.778l-0.005-0.005C9.956,17.505,10.308,19.645,10.308,21.763L10.308,21.763z M57.247,21.763h29.799  c4.363,0,7.938,3.575,7.938,7.938v52.052c0,4.361-3.577,7.938-7.938,7.938H12.954c-4.363,0-7.938-3.575-7.938-7.938V18.247  c0-2.186,0.893-4.164,2.333-5.605l-0.005-0.005c1.437-1.437,3.422-2.328,5.61-2.328h32.663c2.561,0,4.966,1.033,6.395,3.267  L57.247,21.763L57.247,21.763z M87.046,27.055c-25.579,0-51.159,0-76.738,0v54.698c0,1.466,1.18,2.646,2.646,2.646h74.092  c1.468,0,2.646-1.178,2.646-2.646V29.701C89.692,28.235,88.512,27.055,87.046,27.055z"/></svg>