<svg width="14" height="14" viewBox="0 0 14 14" fill="none" xmlns="http://www.w3.org/2000/svg">
<path d="M12.9407 6.90531L7.65787 1.62523L7.30377 1.27113C7.22309 1.19098 7.11398 1.146 7.00025 1.146C6.88653 1.146 6.77742 1.19098 6.69674 1.27113L1.05982 6.90531C0.97715 6.98766 0.911813 7.08574 0.867667 7.19375C0.823521 7.30177 0.801462 7.41753 0.802791 7.53421C0.80826 8.01546 1.20885 8.39964 1.6901 8.39964H2.27115V12.8526H11.7294V8.39964H12.3227C12.5565 8.39964 12.7766 8.30804 12.942 8.14261C13.0235 8.06142 13.088 7.96487 13.1319 7.85856C13.1758 7.75225 13.1982 7.63829 13.1977 7.52328C13.1977 7.29085 13.1061 7.07074 12.9407 6.90531ZM7.76588 11.8682H6.23463V9.07914H7.76588V11.8682ZM10.745 7.41527V11.8682H8.64088V8.75101C8.64088 8.44886 8.39615 8.20414 8.094 8.20414H5.9065C5.60435 8.20414 5.35963 8.44886 5.35963 8.75101V11.8682H3.25553V7.41527H1.94303L7.00162 2.36078L7.31744 2.6766L12.0588 7.41527H10.745Z" fill="black" fill-opacity="0.45"/>
</svg>
