<svg xmlns="http://www.w3.org/2000/svg" xmlns:xlink="http://www.w3.org/1999/xlink" viewBox="0 0 100 125" version="1.1" x="0px" y="0px"><title>Delete 1.3</title><desc>Created with Sketch.</desc><g stroke="none" stroke-width="1" fill="none" fill-rule="evenodd"><g fill-rule="nonzero" fill="#000000"><path d="M70.5013004,31.9375542 L68.6675239,75.9481905 C68.609314,77.3452279 67.40223,78.5 65.9999745,78.5 L34.0000255,78.5 C32.5976252,78.5 31.3905796,77.3426735 31.3324761,75.9481905 L29.4986996,31.9375542 C29.4642117,31.1098452 28.7652631,30.4668125 27.9375542,30.5013004 C27.1098452,30.5357883 26.4668125,31.2347369 26.5013004,32.0624458 L28.3350769,76.0730821 C28.460145,79.0747154 30.9896206,81.5 34.0000255,81.5 L65.9999745,81.5 C69.0087557,81.5 71.5396868,79.0787528 71.6649231,76.0730821 L73.4986996,32.0624458 C73.5331875,31.2347369 72.8901548,30.5357883 72.0624458,30.5013004 C71.2347369,30.4668125 70.5357883,31.1098452 70.5013004,31.9375542 Z"/><path d="M49,38 L49,72 C49,72.8284271 49.6715729,73.5 50.5,73.5 C51.3284271,73.5 52,72.8284271 52,72 L52,38 C52,37.1715729 51.3284271,36.5 50.5,36.5 C49.6715729,36.5 49,37.1715729 49,38 Z"/><path d="M37.5006484,38.0440986 L38.5006484,72.0440986 C38.5250033,72.8721676 39.2160295,73.5237066 40.0440986,73.4993516 C40.8721676,73.4749967 41.5237066,72.7839705 41.4993516,71.9559014 L40.4993516,37.9559014 C40.4749967,37.1278324 39.7839705,36.4762934 38.9559014,36.5006484 C38.1278324,36.5250033 37.4762934,37.2160295 37.5006484,38.0440986 Z"/><path d="M59.5006484,37.9559014 L58.5006484,71.9559014 C58.4762934,72.7839705 59.1278324,73.4749967 59.9559014,73.4993516 C60.7839705,73.5237066 61.4749967,72.8721676 61.4993516,72.0440986 L62.4993516,38.0440986 C62.5237066,37.2160295 61.8721676,36.5250033 61.0440986,36.5006484 C60.2160295,36.4762934 59.5250033,37.1278324 59.5006484,37.9559014 Z"/><path d="M25,27 L75,27 C75.8284271,27 76.5,26.3284271 76.5,25.5 C76.5,24.6715729 75.8284271,24 75,24 L25,24 C24.1715729,24 23.5,24.6715729 23.5,25.5 C23.5,26.3284271 24.1715729,27 25,27 Z"/><path d="M41.392715,25.557086 L42.462976,22.8814335 C42.7478997,22.1691244 43.7363936,21.5 44.5,21.5 L55.5,21.5 C56.2690864,21.5 57.2501243,22.1641843 57.537024,22.8814335 L58.607285,25.557086 L61.392715,24.442914 L60.322454,21.7672615 C59.579961,19.911029 57.4957913,18.5 55.5,18.5 L44.5,18.5 C42.5097774,18.5 40.4180959,19.9158866 39.677546,21.7672615 L38.607285,24.442914 L41.392715,25.557086 Z"/></g></g></svg>