<svg width="24" height="26" viewBox="0 0 24 26" fill="none" xmlns="http://www.w3.org/2000/svg">
<g filter="url(#filter0_d_3266_2461)">
<rect width="24" height="24" rx="4" fill="white" shape-rendering="crispEdges"/>
<path d="M10.8327 6.3125C10.5911 6.3125 10.3952 6.50838 10.3952 6.75V7.1875H7.91602C7.67439 7.1875 7.47852 7.38338 7.47852 7.625C7.47852 7.86662 7.67439 8.0625 7.91602 8.0625H16.0827C16.3243 8.0625 16.5202 7.86662 16.5202 7.625C16.5202 7.38338 16.3243 7.1875 16.0827 7.1875H13.6035V6.75C13.6035 6.50838 13.4076 6.3125 13.166 6.3125H10.8327Z" fill="#D54B52"/>
<path d="M12.6181 13.75L13.4754 14.6073C13.6462 14.7782 13.6462 15.0552 13.4754 15.226C13.3045 15.3969 13.0275 15.3969 12.8567 15.226L11.9994 14.3687L11.142 15.226C10.9712 15.3969 10.6942 15.3969 10.5233 15.226C10.3525 15.0552 10.3525 14.7782 10.5233 14.6073L11.3806 13.75L10.5233 12.8927C10.3525 12.7218 10.3525 12.4448 10.5233 12.274C10.6942 12.1031 10.9712 12.1031 11.142 12.274L11.9994 13.1313L12.8567 12.274C13.0275 12.1031 13.3045 12.1031 13.4754 12.274C13.6462 12.4448 13.6462 12.7218 13.4754 12.8927L12.6181 13.75Z" fill="#D54B52"/>
<path fill-rule="evenodd" clip-rule="evenodd" d="M8.49435 9.61835C8.51897 9.39679 8.70624 9.22917 8.92917 9.22917H15.0695C15.2924 9.22917 15.4797 9.39679 15.5043 9.61835L15.6211 10.6691C15.8327 12.5739 15.8327 14.4963 15.6211 16.401L15.6096 16.5045C15.5256 17.2606 14.9396 17.8635 14.1862 17.9689C12.7354 18.1721 11.2633 18.1721 9.81248 17.9689C9.05908 17.8635 8.4731 17.2606 8.38909 16.5045L8.37759 16.401C8.16595 14.4963 8.16595 12.5739 8.37759 10.6691L8.49435 9.61835ZM9.32075 10.1042L9.24724 10.7658C9.04274 12.6063 9.04274 14.4639 9.24724 16.3044L9.25874 16.4079C9.29858 16.7664 9.57649 17.0524 9.93379 17.1024C11.3041 17.2942 12.6945 17.2942 14.0649 17.1024C14.4222 17.0524 14.7001 16.7664 14.74 16.4079L14.7515 16.3044C14.956 14.4639 14.956 12.6063 14.7515 10.7658L14.6779 10.1042H9.32075Z" fill="#D54B52"/>
<rect x="0.5" y="0.5" width="23" height="23" rx="3.5" stroke="black" stroke-opacity="0.15" shape-rendering="crispEdges"/>
</g>
<defs>
<filter id="filter0_d_3266_2461" x="0" y="0" width="24" height="26" filterUnits="userSpaceOnUse" color-interpolation-filters="sRGB">
<feFlood flood-opacity="0" result="BackgroundImageFix"/>
<feColorMatrix in="SourceAlpha" type="matrix" values="0 0 0 0 0 0 0 0 0 0 0 0 0 0 0 0 0 0 127 0" result="hardAlpha"/>
<feOffset dy="2"/>
<feComposite in2="hardAlpha" operator="out"/>
<feColorMatrix type="matrix" values="0 0 0 0 0 0 0 0 0 0 0 0 0 0 0 0 0 0 0.02 0"/>
<feBlend mode="normal" in2="BackgroundImageFix" result="effect1_dropShadow_3266_2461"/>
<feBlend mode="normal" in="SourceGraphic" in2="effect1_dropShadow_3266_2461" result="shape"/>
</filter>
</defs>
</svg>
