<svg width="16" height="16" viewBox="0 0 16 16" fill="none" xmlns="http://www.w3.org/2000/svg">
<path d="M13.9145 11.8016L8.4051 4.20625C8.2051 3.93125 7.79572 3.93125 7.59729 4.20625L2.08635 11.8016C2.07279 11.8202 2.06466 11.8423 2.06287 11.8653C2.06109 11.8883 2.06571 11.9114 2.07623 11.932C2.08674 11.9525 2.10275 11.9697 2.12246 11.9817C2.14217 11.9938 2.16483 12.0001 2.18791 12H3.35979C3.43947 12 3.51447 11.9609 3.56135 11.8969L8.00041 5.77812L12.4395 11.8969C12.4863 11.9609 12.5613 12 12.641 12H13.8129C13.9145 12 13.9738 11.8844 13.9145 11.8016V11.8016Z" fill="#1677FF"/>
</svg>
